<mxfile host="app.diagrams.net" agent="Mozilla/5.0 (Windows NT 10.0; Win64; x64; rv:137.0) Gecko/20100101 Firefox/137.0" version="26.2.12">
  <diagram name="Страница — 1" id="TRWRsgmhhQ_bkvfnXbKY">
    <mxGraphModel dx="1044" dy="547" grid="1" gridSize="10" guides="1" tooltips="1" connect="1" arrows="1" fold="1" page="1" pageScale="1" pageWidth="827" pageHeight="1169" math="0" shadow="0">
      <root>
        <mxCell id="0" />
        <mxCell id="1" parent="0" />
        <mxCell id="NHDwvT9L5tkrP_qXXvw8-1" value="Nazwa" style="shape=umlActor;verticalLabelPosition=bottom;verticalAlign=top;html=1;outlineConnect=0;" parent="1" vertex="1">
          <mxGeometry x="50" y="40" width="30" height="60" as="geometry" />
        </mxCell>
        <mxCell id="NHDwvT9L5tkrP_qXXvw8-2" value="Actor" style="text;html=1;align=center;verticalAlign=middle;resizable=0;points=[];autosize=1;strokeColor=none;fillColor=none;" parent="1" vertex="1">
          <mxGeometry x="85" y="58" width="50" height="30" as="geometry" />
        </mxCell>
        <mxCell id="NHDwvT9L5tkrP_qXXvw8-3" value="Nazwa" style="ellipse;whiteSpace=wrap;html=1;" parent="1" vertex="1">
          <mxGeometry x="40" y="150" width="120" height="80" as="geometry" />
        </mxCell>
        <mxCell id="NHDwvT9L5tkrP_qXXvw8-4" value="Use case" style="text;html=1;align=center;verticalAlign=middle;resizable=0;points=[];autosize=1;strokeColor=none;fillColor=none;" parent="1" vertex="1">
          <mxGeometry x="160" y="175" width="70" height="30" as="geometry" />
        </mxCell>
        <mxCell id="NHDwvT9L5tkrP_qXXvw8-5" value="" style="endArrow=classic;html=1;rounded=0;" parent="1" edge="1">
          <mxGeometry width="50" height="50" relative="1" as="geometry">
            <mxPoint x="45" y="274.5" as="sourcePoint" />
            <mxPoint x="155" y="274.5" as="targetPoint" />
          </mxGeometry>
        </mxCell>
        <mxCell id="NHDwvT9L5tkrP_qXXvw8-6" value="Zależniść mędzy use casami" style="text;html=1;align=center;verticalAlign=middle;resizable=0;points=[];autosize=1;strokeColor=none;fillColor=none;" parent="1" vertex="1">
          <mxGeometry x="160" y="260" width="180" height="30" as="geometry" />
        </mxCell>
        <mxCell id="NHDwvT9L5tkrP_qXXvw8-7" value="&amp;lt;&amp;lt;include&amp;gt;&amp;gt;" style="text;html=1;align=center;verticalAlign=middle;resizable=0;points=[];autosize=1;strokeColor=none;fillColor=none;" parent="1" vertex="1">
          <mxGeometry x="40" y="318" width="90" height="30" as="geometry" />
        </mxCell>
        <mxCell id="NHDwvT9L5tkrP_qXXvw8-8" value="&amp;lt;&amp;lt;extend&amp;gt;&amp;gt;" style="text;html=1;align=center;verticalAlign=middle;resizable=0;points=[];autosize=1;strokeColor=none;fillColor=none;" parent="1" vertex="1">
          <mxGeometry x="40" y="358" width="90" height="30" as="geometry" />
        </mxCell>
        <mxCell id="NHDwvT9L5tkrP_qXXvw8-9" value="" style="endArrow=none;html=1;rounded=0;" parent="1" edge="1">
          <mxGeometry width="50" height="50" relative="1" as="geometry">
            <mxPoint x="50" y="420" as="sourcePoint" />
            <mxPoint x="150" y="420" as="targetPoint" />
          </mxGeometry>
        </mxCell>
        <mxCell id="NHDwvT9L5tkrP_qXXvw8-11" value="*" style="edgeLabel;html=1;align=center;verticalAlign=middle;resizable=0;points=[];fontSize=15;" parent="NHDwvT9L5tkrP_qXXvw8-9" vertex="1" connectable="0">
          <mxGeometry x="-0.78" y="-1" relative="1" as="geometry">
            <mxPoint as="offset" />
          </mxGeometry>
        </mxCell>
        <mxCell id="NHDwvT9L5tkrP_qXXvw8-12" value="*" style="edgeLabel;html=1;align=center;verticalAlign=middle;resizable=0;points=[];fontSize=15;" parent="NHDwvT9L5tkrP_qXXvw8-9" vertex="1" connectable="0">
          <mxGeometry x="0.8" relative="1" as="geometry">
            <mxPoint as="offset" />
          </mxGeometry>
        </mxCell>
        <mxCell id="NHDwvT9L5tkrP_qXXvw8-14" value="Użycie" style="text;html=1;align=center;verticalAlign=middle;resizable=0;points=[];autosize=1;strokeColor=none;fillColor=none;" parent="1" vertex="1">
          <mxGeometry x="160" y="398" width="60" height="30" as="geometry" />
        </mxCell>
        <mxCell id="NHDwvT9L5tkrP_qXXvw8-15" value="Nazwa Systemu" style="whiteSpace=wrap;html=1;aspect=fixed;" parent="1" vertex="1">
          <mxGeometry x="45" y="440" width="80" height="80" as="geometry" />
        </mxCell>
        <mxCell id="NHDwvT9L5tkrP_qXXvw8-16" value="Brzęg systemu" style="text;html=1;align=center;verticalAlign=middle;resizable=0;points=[];autosize=1;strokeColor=none;fillColor=none;" parent="1" vertex="1">
          <mxGeometry x="140" y="468" width="100" height="30" as="geometry" />
        </mxCell>
        <mxCell id="NHDwvT9L5tkrP_qXXvw8-18" value="" style="whiteSpace=wrap;html=1;aspect=fixed;" parent="1" vertex="1">
          <mxGeometry x="220" y="560" width="320" height="320" as="geometry" />
        </mxCell>
        <mxCell id="NHDwvT9L5tkrP_qXXvw8-19" value="Sklep internetowy &quot;ABC&quot;" style="text;html=1;align=center;verticalAlign=middle;resizable=0;points=[];autosize=1;strokeColor=none;fillColor=none;" parent="1" vertex="1">
          <mxGeometry x="305" y="570" width="150" height="30" as="geometry" />
        </mxCell>
        <mxCell id="NHDwvT9L5tkrP_qXXvw8-20" value="Klient" style="shape=umlActor;verticalLabelPosition=bottom;verticalAlign=top;html=1;outlineConnect=0;" parent="1" vertex="1">
          <mxGeometry x="120" y="560" width="30" height="60" as="geometry" />
        </mxCell>
        <mxCell id="NHDwvT9L5tkrP_qXXvw8-25" value="Administrator" style="shape=umlActor;verticalLabelPosition=bottom;verticalAlign=top;html=1;outlineConnect=0;" parent="1" vertex="1">
          <mxGeometry x="580" y="560" width="30" height="60" as="geometry" />
        </mxCell>
        <mxCell id="NHDwvT9L5tkrP_qXXvw8-26" value="Dostawca" style="shape=umlActor;verticalLabelPosition=bottom;verticalAlign=top;html=1;outlineConnect=0;" parent="1" vertex="1">
          <mxGeometry x="120" y="670" width="30" height="60" as="geometry" />
        </mxCell>
        <mxCell id="NHDwvT9L5tkrP_qXXvw8-27" value="System płatności" style="shape=umlActor;verticalLabelPosition=bottom;verticalAlign=top;html=1;outlineConnect=0;" parent="1" vertex="1">
          <mxGeometry x="580" y="720" width="30" height="60" as="geometry" />
        </mxCell>
        <mxCell id="NHDwvT9L5tkrP_qXXvw8-28" value="Logowanie" style="ellipse;whiteSpace=wrap;html=1;" parent="1" vertex="1">
          <mxGeometry x="380" y="640" width="120" height="30" as="geometry" />
        </mxCell>
        <mxCell id="NHDwvT9L5tkrP_qXXvw8-29" value="Złóż zamówienie" style="ellipse;whiteSpace=wrap;html=1;" parent="1" vertex="1">
          <mxGeometry x="230" y="770" width="120" height="30" as="geometry" />
        </mxCell>
        <mxCell id="NHDwvT9L5tkrP_qXXvw8-30" value="" style="endArrow=none;html=1;rounded=0;exitX=0.5;exitY=0.5;exitDx=0;exitDy=0;exitPerimeter=0;entryX=0;entryY=0.5;entryDx=0;entryDy=0;" parent="1" source="NHDwvT9L5tkrP_qXXvw8-20" target="NHDwvT9L5tkrP_qXXvw8-29" edge="1">
          <mxGeometry width="50" height="50" relative="1" as="geometry">
            <mxPoint x="170" y="640" as="sourcePoint" />
            <mxPoint x="220" y="590" as="targetPoint" />
          </mxGeometry>
        </mxCell>
        <mxCell id="NHDwvT9L5tkrP_qXXvw8-32" value="1" style="text;html=1;align=center;verticalAlign=middle;resizable=0;points=[];autosize=1;strokeColor=none;fillColor=none;" parent="1" vertex="1">
          <mxGeometry x="140" y="610" width="30" height="30" as="geometry" />
        </mxCell>
        <mxCell id="NHDwvT9L5tkrP_qXXvw8-34" value="*" style="text;html=1;align=center;verticalAlign=middle;resizable=0;points=[];autosize=1;strokeColor=none;fillColor=none;" parent="1" vertex="1">
          <mxGeometry x="220" y="760" width="30" height="30" as="geometry" />
        </mxCell>
        <mxCell id="NHDwvT9L5tkrP_qXXvw8-37" value="Rejestracja" style="ellipse;whiteSpace=wrap;html=1;" parent="1" vertex="1">
          <mxGeometry x="240" y="640" width="100" height="30" as="geometry" />
        </mxCell>
        <mxCell id="4M_4iiYmdBJVKKY7s6vz-5" value="" style="endArrow=classic;html=1;rounded=0;exitX=1;exitY=0.5;exitDx=0;exitDy=0;entryX=0;entryY=0.5;entryDx=0;entryDy=0;" edge="1" parent="1" source="NHDwvT9L5tkrP_qXXvw8-37" target="NHDwvT9L5tkrP_qXXvw8-28">
          <mxGeometry width="50" height="50" relative="1" as="geometry">
            <mxPoint x="310" y="740" as="sourcePoint" />
            <mxPoint x="360" y="690" as="targetPoint" />
          </mxGeometry>
        </mxCell>
        <mxCell id="4M_4iiYmdBJVKKY7s6vz-6" value="&amp;lt;&amp;lt;extend&amp;gt;&amp;gt;" style="text;html=1;align=center;verticalAlign=middle;resizable=0;points=[];autosize=1;strokeColor=none;fillColor=none;" vertex="1" parent="1">
          <mxGeometry x="320" y="630" width="90" height="30" as="geometry" />
        </mxCell>
        <mxCell id="4M_4iiYmdBJVKKY7s6vz-7" value="" style="endArrow=classic;html=1;rounded=0;entryX=0;entryY=0.5;entryDx=0;entryDy=0;exitX=0.5;exitY=0.5;exitDx=0;exitDy=0;exitPerimeter=0;" edge="1" parent="1" source="NHDwvT9L5tkrP_qXXvw8-20" target="NHDwvT9L5tkrP_qXXvw8-37">
          <mxGeometry width="50" height="50" relative="1" as="geometry">
            <mxPoint x="10" y="690" as="sourcePoint" />
            <mxPoint x="60" y="640" as="targetPoint" />
          </mxGeometry>
        </mxCell>
        <mxCell id="4M_4iiYmdBJVKKY7s6vz-8" value="" style="endArrow=classic;html=1;rounded=0;exitX=0.5;exitY=0.5;exitDx=0;exitDy=0;exitPerimeter=0;entryX=1;entryY=0.5;entryDx=0;entryDy=0;" edge="1" parent="1" source="NHDwvT9L5tkrP_qXXvw8-25" target="NHDwvT9L5tkrP_qXXvw8-28">
          <mxGeometry width="50" height="50" relative="1" as="geometry">
            <mxPoint x="420" y="530" as="sourcePoint" />
            <mxPoint x="470" y="480" as="targetPoint" />
          </mxGeometry>
        </mxCell>
        <mxCell id="4M_4iiYmdBJVKKY7s6vz-9" value="Opłać zamówienie" style="ellipse;whiteSpace=wrap;html=1;" vertex="1" parent="1">
          <mxGeometry x="400" y="770" width="120" height="25" as="geometry" />
        </mxCell>
        <mxCell id="4M_4iiYmdBJVKKY7s6vz-10" value="" style="endArrow=classic;html=1;rounded=0;exitX=1;exitY=0.5;exitDx=0;exitDy=0;entryX=0;entryY=0.5;entryDx=0;entryDy=0;" edge="1" parent="1" source="NHDwvT9L5tkrP_qXXvw8-29" target="4M_4iiYmdBJVKKY7s6vz-9">
          <mxGeometry width="50" height="50" relative="1" as="geometry">
            <mxPoint x="110" y="840" as="sourcePoint" />
            <mxPoint x="400" y="730" as="targetPoint" />
          </mxGeometry>
        </mxCell>
        <mxCell id="4M_4iiYmdBJVKKY7s6vz-11" value="" style="endArrow=classic;html=1;rounded=0;exitX=1;exitY=0.5;exitDx=0;exitDy=0;entryX=0.5;entryY=0.5;entryDx=0;entryDy=0;entryPerimeter=0;" edge="1" parent="1" source="4M_4iiYmdBJVKKY7s6vz-9" target="NHDwvT9L5tkrP_qXXvw8-27">
          <mxGeometry width="50" height="50" relative="1" as="geometry">
            <mxPoint x="100" y="850" as="sourcePoint" />
            <mxPoint x="150" y="800" as="targetPoint" />
          </mxGeometry>
        </mxCell>
        <mxCell id="4M_4iiYmdBJVKKY7s6vz-13" value="&amp;lt;&amp;lt;include&amp;gt;&amp;gt;" style="text;html=1;align=center;verticalAlign=middle;resizable=0;points=[];autosize=1;strokeColor=none;fillColor=none;" vertex="1" parent="1">
          <mxGeometry x="324" y="760" width="90" height="30" as="geometry" />
        </mxCell>
        <mxCell id="4M_4iiYmdBJVKKY7s6vz-16" value="Zarządzaj produktami" style="ellipse;whiteSpace=wrap;html=1;" vertex="1" parent="1">
          <mxGeometry x="380" y="680" width="120" height="30" as="geometry" />
        </mxCell>
        <mxCell id="4M_4iiYmdBJVKKY7s6vz-17" value="" style="endArrow=classic;html=1;rounded=0;exitX=0.5;exitY=0.5;exitDx=0;exitDy=0;exitPerimeter=0;entryX=1;entryY=0.5;entryDx=0;entryDy=0;" edge="1" parent="1" source="NHDwvT9L5tkrP_qXXvw8-25" target="4M_4iiYmdBJVKKY7s6vz-16">
          <mxGeometry width="50" height="50" relative="1" as="geometry">
            <mxPoint x="530" y="500" as="sourcePoint" />
            <mxPoint x="580" y="450" as="targetPoint" />
          </mxGeometry>
        </mxCell>
        <mxCell id="4M_4iiYmdBJVKKY7s6vz-18" value="Zarządzaj użytkownikami" style="ellipse;whiteSpace=wrap;html=1;" vertex="1" parent="1">
          <mxGeometry x="370" y="720" width="140" height="30" as="geometry" />
        </mxCell>
        <mxCell id="4M_4iiYmdBJVKKY7s6vz-19" value="" style="endArrow=classic;html=1;rounded=0;exitX=0.5;exitY=0.5;exitDx=0;exitDy=0;exitPerimeter=0;entryX=1;entryY=0.5;entryDx=0;entryDy=0;" edge="1" parent="1" source="NHDwvT9L5tkrP_qXXvw8-25" target="4M_4iiYmdBJVKKY7s6vz-18">
          <mxGeometry width="50" height="50" relative="1" as="geometry">
            <mxPoint x="80" y="850" as="sourcePoint" />
            <mxPoint x="130" y="800" as="targetPoint" />
          </mxGeometry>
        </mxCell>
        <mxCell id="4M_4iiYmdBJVKKY7s6vz-20" value="Przeglądaj produkty" style="ellipse;whiteSpace=wrap;html=1;" vertex="1" parent="1">
          <mxGeometry x="240" y="690" width="100" height="30" as="geometry" />
        </mxCell>
        <mxCell id="4M_4iiYmdBJVKKY7s6vz-21" value="" style="endArrow=classic;html=1;rounded=0;exitX=0.5;exitY=0.5;exitDx=0;exitDy=0;exitPerimeter=0;entryX=0;entryY=0.5;entryDx=0;entryDy=0;" edge="1" parent="1" source="NHDwvT9L5tkrP_qXXvw8-20" target="4M_4iiYmdBJVKKY7s6vz-20">
          <mxGeometry width="50" height="50" relative="1" as="geometry">
            <mxPoint x="220" y="530" as="sourcePoint" />
            <mxPoint x="270" y="480" as="targetPoint" />
          </mxGeometry>
        </mxCell>
      </root>
    </mxGraphModel>
  </diagram>
</mxfile>
